# xmcd CD database file
#
# Track frame offsets:
#	150
#	32955
#	55130
#	88150
#	108835
#	142932
#	161372
#	195730
#	226492
#
# Disc length: 3322 seconds
#
# Revision: 1
# Processed by: cddbd v1.5.1PL2 Copyright (c) Steve Scherf et al.
# Submitted via: CDex 1.51
#
DISCID=700cf809
DTITLE=Sarah Jane Cion - Moon Song
DYEAR=1999
DGENRE=Jazz
TTITLE0=A Pond Beneath the Moon
TTITLE1=Last Cha-Cha in Longbeach
TTITLE2=Moon Song
TTITLE3=Samba Picara
TTITLE4=Waltz for fall
TTITLE5=Blues for Chick
TTITLE6=Suncycle
TTITLE7=How Long Has This Been Going On
TTITLE8=Solo Piano Medley
EXTD=YEAR: 1999
EXTT0=
EXTT1=
EXTT2=
EXTT3=
EXTT4=
EXTT5=
EXTT6=
EXTT7=
EXTT8=
PLAYORDER=
